# Blender 4.0.2
# www.blender.org
mtllib house.mtl
o Cube.001
v -1.302966 0.888753 1.015283
v 1.302966 0.888753 1.015283
v 0.000000 1.000000 2.429496
v -1.302966 -0.888753 1.015283
v 1.302966 -0.888753 1.015283
v 0.000000 -1.000000 2.429496
v 1.414214 -1.000000 1.015283
v 1.414214 1.000000 1.015283
v -1.414214 -1.000000 1.015283
v -1.414214 1.000000 1.015283
v 1.302966 -0.888753 -0.504812
v 1.302966 0.888753 -0.504812
v -1.302966 -0.888753 -0.504812
v -1.302966 0.888753 -0.504812
vn 0.7071 -0.0000 0.7071
vn -0.7071 -0.0000 0.7071
vn -0.0000 -1.0000 -0.0000
vn -0.0000 1.0000 -0.0000
vn -0.0000 -0.0000 -1.0000
vn -1.0000 -0.0000 -0.0000
vn 1.0000 -0.0000 -0.0000
vt 0.375000 0.250000
vt 0.625000 0.250000
vt 0.625000 0.500000
vt 0.375000 0.500000
vt 0.875000 0.500000
vt 0.875000 0.750000
vt 0.625000 0.750000
vt 0.843589 0.732495
vt 0.392505 0.281411
vt 0.386994 0.498088
vt 0.626912 0.738006
s 0
f 8/1/1 3/2/1 6/3/1 7/4/1
f 6/3/2 3/5/2 10/6/2 9/7/2
f 7/4/3 6/3/3 9/7/3
f 3/2/4 8/1/4 10/6/4
f 1/8/4 2/9/4 12/9/4 14/8/4
f 5/10/5 2/9/5 8/1/5 7/4/5
f 1/8/5 4/11/5 9/7/5 10/6/5
f 4/11/5 5/10/5 7/4/5 9/7/5
f 2/9/5 1/8/5 10/6/5 8/1/5
f 12/9/5 11/10/5 13/11/5 14/8/5
f 4/11/6 1/8/6 14/8/6 13/11/6
f 5/10/3 4/11/3 13/11/3 11/10/3
f 2/9/7 5/10/7 11/10/7 12/9/7
